<?xml version="1.0" encoding="utf-8"?>
<!-- Generator: Adobe Illustrator 21.1.0, SVG Export Plug-In . SVG Version: 6.00 Build 0)  -->
<svg version="1.1" id="Layer_1" xmlns="http://www.w3.org/2000/svg" xmlns:xlink="http://www.w3.org/1999/xlink" x="0px" y="0px"
	 viewBox="0 0 1640 1250.8" style="enable-background:new 0 0 1640 1250.8;" xml:space="preserve">
<style type="text/css">
	.st0{fill:#FFFFFF;}
	.st1{fill:#231F20;}
</style>
<rect x="95.5" y="65.5" class="st0" width="304.7" height="174.9"/>
<path class="st1" d="M295.5,298.3C295.5,298.3,295.5,298.3,295.5,298.3c-0.9-0.7-7.3-5.9-10.6-11c0,0-1-0.2-2-8.7
	c-1.4-12.1-2.5-21.6-2.5-21.6h-64.9c0,0-1.2,9.5-2.5,21.6c-1,8.5-2,8.6-2,8.6c-3.5,5.5-10.6,11.1-10.6,11.1s-4.6,4.7,1.2,5.5
	c0.2,0,0.5,0.1,0.8,0.1c0.3,0,0.5,0,0.8,0c1.7,0.1,5,0.1,9.3,0.2c1.3,0,3,0,5.1,0c7.5,0,19.5,0.1,31.8,0.1c7.1,0,14.3,0,20.8,0
	c4.4,0,8.1,0,10.9,0c1.8,0,3.4,0,4.9,0c2.7-0.1,4.8-0.1,6.2-0.1c0.5,0,1,0,1.3-0.1c1.8-0.1,2.8-0.5,3.3-1.1c1-1.2,0-2.9-0.8-3.8
	C295.8,298.5,295.5,298.3,295.5,298.3z M404.2,54H249.1h-2.2H91.8c0,0-7.8,0.5-7.8,6.6v184.8c0,0,0.6,7.1,7.7,7.6
	c6.8,0.5,146,0,156.7,0c15.7,0.1,149.3,0.5,155.9,0c7.1-0.5,7.7-7.6,7.7-7.6V60.6C412,54.5,404.2,54,404.2,54z M399,238H97V67h302
	l0-0.4V238z"/>
<rect x="501.5" y="76.5" class="st0" width="275.8" height="139"/>
<path d="M780.8,66H640.4h-1.9H498c0,0-7,0.5-7,5.9v149.2c0,0,0.6,6.4,6.9,6.8c6.1,0.4,132.2,0,141.8,0c14.2,0,135.1,0.4,141.1,0
	c6.4-0.4,7-6.8,7-6.8V71.9C787.9,66.5,780.8,66,780.8,66z M776.1,214.4H502.8V77.8h273.4l0-0.4V214.4z M670.2,267.7v6.3h-11.8h-37.1
	h-11.8v-6.3h11.8v-36.2h37.1v36.2H670.2z"/>
<rect x="345" y="190.5" class="st0" width="223.5" height="133.5"/>
<path class="st1" d="M480,346v2.7c0,1.8-1.9,3.3-3.6,3.3h-38.7c-1.8,0-3.6-1.5-3.6-3.3V346H312v6c0,0-0.2,9,9.5,9h271
	c9.7,0,9.5-9,9.5-9v-6H480z M344.1,335h3.2h219.4h3.2c5.3,0,9.1-3.5,9.1-8.8V193.9v-3.2c0-5.3-3.8-9.7-9.1-9.7H344.1
	c-5.3,0-9.1,4.3-9.1,9.7v3.2v132.3C335,331.5,338.7,335,344.1,335z M347,193h220v130H347V193z"/>
</svg>
